<?xml version="1.0" standalone="no"?>
<!DOCTYPE svg PUBLIC "-//W3C//DTD SVG 20010904//EN"
 "http://www.w3.org/TR/2001/REC-SVG-20010904/DTD/svg10.dtd">
<svg version="1.0" xmlns="http://www.w3.org/2000/svg"
 width="1072.000000pt" height="253.000000pt" viewBox="0 0 1072.000000 253.000000"
 preserveAspectRatio="xMidYMid meet">

<g transform="translate(0.000000,253.000000) scale(0.100000,-0.100000)"
fill="#000000" stroke="none">
<path d="M1215 2319 c-347 -41 -659 -259 -822 -574 -91 -178 -127 -325 -127
-530 0 -149 11 -221 51 -350 97 -310 339 -574 634 -691 219 -87 487 -97 714
-27 648 200 960 956 650 1574 -139 277 -405 496 -692 570 -141 36 -269 45
-408 28z m331 -138 c176 -36 337 -124 470 -256 131 -129 218 -279 266 -455 20
-73 23 -109 23 -260 0 -152 -3 -186 -23 -260 -109 -397 -433 -678 -834 -721
-283 -31 -569 71 -774 275 -209 210 -314 508 -284 806 32 308 187 570 433 734
118 78 211 115 382 150 59 12 257 4 341 -13z"/>
<path d="M1325 1999 c-41 -12 -65 -46 -65 -95 0 -59 34 -94 93 -94 52 0 84 21
95 65 23 81 -44 148 -123 124z"/>
<path d="M1003 1791 c-124 -46 -174 -91 -154 -139 15 -35 103 -100 147 -108
68 -13 136 1 201 39 57 34 67 37 141 37 91 0 112 13 112 72 0 56 -22 68 -125
68 -70 0 -98 4 -133 22 -62 29 -126 33 -189 9z m46 -84 c15 -19 -10 -53 -33
-44 -16 6 -22 38 -9 50 10 11 30 8 42 -6z"/>
<path d="M1480 1736 l0 -73 52 -7 c42 -6 59 -14 90 -45 40 -41 45 -59 27 -110
-20 -58 -49 -65 -289 -71 -194 -5 -219 -8 -255 -27 -137 -73 -176 -225 -85
-335 35 -42 134 -94 198 -104 l42 -7 0 71 0 70 -42 7 c-109 19 -134 143 -35
173 17 6 120 13 227 17 215 7 255 13 300 52 64 54 95 169 71 261 -22 78 -109
156 -211 186 -90 27 -90 27 -90 -58z"/>
<path d="M1299 1583 c-13 -3 -15 -15 -11 -61 2 -31 5 -58 6 -59 0 0 28 2 61 5
l60 7 3 58 3 57 -53 -1 c-29 -1 -60 -3 -69 -6z"/>
<path d="M1300 1086 l0 -166 49 0 49 0 7 73 c3 39 5 113 3 162 l-3 90 -52 3
-53 3 0 -165z"/>
<path d="M1456 1122 c-3 -3 -6 -33 -6 -68 l0 -62 38 -7 c46 -8 62 -21 62 -50
0 -47 -32 -60 -169 -66 -144 -6 -180 -18 -230 -74 -31 -35 -33 -42 -29 -95 2
-34 12 -66 23 -83 18 -24 121 -85 129 -76 2 2 6 25 10 50 7 45 6 47 -29 67
-38 23 -44 42 -19 66 20 21 38 24 174 30 168 6 233 36 265 120 32 84 0 172
-79 213 -37 19 -132 43 -140 35z"/>
<path d="M1342 713 c-22 -4 -22 -5 -20 -161 l3 -157 24 -3 c44 -7 51 18 51
174 0 120 -2 143 -16 148 -9 3 -16 5 -17 5 -1 -1 -12 -4 -25 -6z"/>
<path d="M5847 1666 c-4 -129 -4 -243 0 -253 3 -10 -9 -3 -29 18 -20 20 -58
47 -84 60 -42 21 -63 24 -154 24 -93 0 -111 -3 -162 -27 -161 -75 -250 -246
-235 -447 18 -233 178 -391 396 -391 105 0 163 21 223 81 l48 48 0 -59 0 -60
110 0 110 0 0 620 0 620 -108 0 -109 0 -6 -234z m-154 -357 c43 -12 111 -68
133 -110 24 -48 29 -139 10 -197 -29 -85 -119 -152 -206 -152 -93 0 -188 77
-210 170 -44 182 102 337 273 289z"/>
<path d="M8500 1280 l0 -620 79 0 c43 0 93 3 110 6 l31 7 0 613 0 614 -110 0
-110 0 0 -620z"/>
<path d="M6306 1880 c-62 -19 -105 -94 -90 -157 17 -71 90 -121 153 -106 42 9
89 50 101 89 24 72 -17 154 -88 174 -42 11 -37 11 -76 0z"/>
<path d="M8910 1278 l0 -608 120 0 120 0 0 229 0 228 83 6 c45 4 137 7 205 7
l122 0 0 105 0 105 -205 0 -205 0 0 155 0 155 225 0 225 0 0 110 0 109 -345 3
-345 3 0 -607z"/>
<path d="M2862 1678 c-7 -112 -26 -381 -42 -598 -17 -217 -30 -401 -30 -407 0
-10 30 -13 115 -13 85 0 115 3 115 13 0 28 50 687 56 740 4 32 10 55 14 50 4
-4 67 -153 140 -330 l134 -323 87 0 87 0 45 103 c24 56 89 205 143 331 93 216
99 228 106 195 6 -28 68 -723 68 -766 0 -10 25 -13 115 -13 l115 0 0 28 c0 15
-4 77 -10 137 -13 150 -80 1021 -80 1040 0 13 -19 15 -142 13 l-142 -3 -34
-85 c-87 -219 -255 -626 -262 -633 -4 -4 -74 157 -156 358 l-149 365 -140 0
-141 0 -12 -202z"/>
<path d="M9757 1753 c-4 -71 -7 -343 -7 -605 l0 -478 360 0 360 0 0 105 0 105
-245 0 -245 0 2 500 3 500 -111 0 -111 0 -6 -127z"/>
<path d="M4525 1500 c-118 -39 -216 -143 -255 -268 -22 -71 -26 -197 -9 -272
23 -101 97 -203 184 -255 143 -84 372 -77 531 15 l52 29 -21 83 c-11 46 -21
84 -22 86 -2 2 -22 -10 -46 -26 -117 -79 -296 -82 -394 -7 -36 26 -61 66 -76
117 l-8 28 294 0 293 0 4 38 c3 20 1 70 -3 110 -16 141 -94 254 -217 310 -78
35 -220 41 -307 12z m235 -194 c35 -23 80 -88 80 -116 0 -6 -64 -10 -185 -10
-123 0 -185 4 -185 10 0 20 28 65 57 92 67 64 159 73 233 24z"/>
<path d="M6919 1506 c-120 -35 -213 -115 -272 -235 -31 -64 -32 -70 -32 -191
0 -117 2 -129 29 -183 41 -85 124 -170 204 -209 65 -32 70 -33 197 -33 127 0
132 1 195 32 36 18 84 52 108 76 l43 44 -73 65 -73 66 -35 -30 c-45 -37 -130
-62 -182 -54 -149 24 -232 164 -182 308 51 150 227 195 362 92 l33 -26 62 58
c34 32 66 61 71 66 18 15 -96 114 -160 138 -73 28 -225 36 -295 16z"/>
<path d="M7735 1507 c-72 -24 -120 -54 -168 -106 -86 -92 -123 -205 -114 -351
14 -239 166 -399 378 -400 97 0 161 20 227 70 l52 40 0 -50 0 -51 113 3 112 3
3 418 2 417 -115 0 -115 0 0 -45 0 -46 -37 30 c-64 51 -129 74 -218 78 -48 2
-96 -2 -120 -10z m270 -222 c73 -43 105 -105 105 -208 0 -174 -164 -276 -318
-198 -47 24 -66 45 -91 101 -27 58 -27 150 -2 206 21 46 82 102 132 121 47 18
123 8 174 -22z"/>
<path d="M6247 1493 c-10 -9 -9 -821 1 -826 4 -2 53 -2 110 1 l102 4 0 414 0
414 -103 0 c-57 0 -107 -3 -110 -7z"/>
</g>
</svg>
