<?xml version="1.0" standalone="no"?>
<!DOCTYPE svg PUBLIC "-//W3C//DTD SVG 20010904//EN"
 "http://www.w3.org/TR/2001/REC-SVG-20010904/DTD/svg10.dtd">
<svg version="1.0" xmlns="http://www.w3.org/2000/svg"
 width="1024.000000pt" height="1024.000000pt" viewBox="0 0 1024.000000 1024.000000"
 preserveAspectRatio="xMidYMid meet">

<g transform="translate(0.000000,1024.000000) scale(0.100000,-0.100000)"
fill="#000000" stroke="none">
<path d="M0 5120 l0 -5120 5120 0 5120 0 0 5120 0 5120 -5120 0 -5120 0 0
-5120z m5937 597 c48 -43 37 -134 -18 -162 -82 -43 -171 21 -155 110 15 76
114 107 173 52z m-3909 0 c9 -7 12 -53 12 -166 l0 -156 157 2 c214 4 203 12
203 -164 0 -184 12 -173 -197 -173 l-163 0 0 -159 c0 -199 6 -191 -156 -191
-97 0 -115 3 -137 20 l-26 21 2 154 2 155 -161 0 c-123 0 -165 3 -180 14 -17
13 -19 27 -19 151 0 183 -8 176 203 174 l154 -1 -1 142 c-3 193 -6 188 142
192 119 3 145 1 165 -15z m3602 -467 l0 -490 -69 0 -69 0 -7 41 -7 41 -27 -25
c-66 -62 -147 -84 -245 -66 -159 27 -260 147 -273 324 -10 126 41 258 124 321
89 68 232 85 329 40 28 -13 55 -29 58 -35 21 -33 26 3 26 164 l0 175 80 0 80
0 0 -490z m2098 -2 l2 -488 -80 0 -80 0 0 490 0 491 78 -3 77 -3 3 -487z
m-4265 254 c48 -125 100 -260 115 -300 l28 -73 69 178 c38 98 90 232 115 298
l47 120 104 0 104 0 16 -335 c9 -184 20 -401 24 -482 l7 -148 -85 0 -84 0 -7
98 c-3 53 -11 203 -17 332 -6 129 -11 239 -12 243 -3 10 -99 -221 -167 -400
l-43 -113 -71 0 -71 1 -100 255 c-55 141 -103 258 -107 260 -5 3 -8 -34 -9
-83 -1 -48 -6 -200 -13 -338 l-11 -250 -82 -3 -83 -3 0 69 c0 68 24 597 36
800 l6 102 101 0 102 0 88 -228z m5027 148 l0 -80 -204 0 -205 0 -3 -130 -3
-130 185 -2 185 -3 0 -74 0 -74 -183 -1 -183 -1 -2 -195 -2 -195 -87 -3 -88
-3 0 479 c0 263 3 482 7 485 3 4 136 7 295 7 l288 0 0 -80z m300 -325 l0 -405
195 0 195 0 0 -80 0 -80 -285 0 -285 0 0 485 0 485 90 0 90 0 0 -405z m-1522
115 c29 -12 67 -40 86 -61 58 -63 66 -110 66 -381 l0 -238 -74 0 -73 0 -7 40
-6 40 -44 -34 c-104 -79 -282 -71 -363 16 -51 54 -67 146 -37 216 40 97 118
132 310 139 l131 6 -7 34 c-12 49 -37 83 -75 99 -76 31 -159 6 -186 -56 l-14
-32 -70 7 c-38 4 -74 9 -78 12 -14 8 1 64 28 105 28 42 96 86 164 105 66 19
185 10 249 -17z m-2625 4 c60 -20 132 -84 162 -144 27 -54 48 -157 43 -216
l-3 -39 -244 -3 -243 -2 6 -33 c9 -46 36 -79 86 -104 75 -39 170 -25 231 33
l26 25 63 -34 62 -35 -42 -46 c-23 -25 -68 -58 -99 -73 -50 -25 -67 -28 -156
-28 -89 0 -106 3 -157 28 -119 58 -188 178 -188 326 0 212 137 361 331 361 43
0 95 -7 122 -16z m1922 -16 c84 -43 176 -159 143 -179 -6 -4 -41 -15 -76 -24
l-65 -16 -29 36 c-76 92 -192 86 -262 -13 -23 -32 -30 -54 -34 -111 -4 -62 -1
-77 22 -125 58 -119 188 -140 270 -44 l35 40 75 -22 c42 -13 76 -28 76 -34 0
-28 -61 -105 -106 -135 -135 -89 -316 -78 -437 28 -20 18 -51 63 -69 99 -31
62 -33 73 -33 172 0 99 2 110 33 172 39 79 101 138 176 168 75 30 211 24 281
-12z m-615 -323 l0 -345 -85 0 -85 0 0 345 0 345 85 0 85 0 0 -345z"/>
<path d="M5215 5305 c-85 -43 -129 -148 -107 -253 23 -109 84 -162 185 -162
62 0 108 25 144 79 20 29 23 47 23 123 0 99 -12 139 -56 180 -53 49 -130 62
-189 33z"/>
<path d="M7035 5045 c-49 -18 -65 -38 -65 -86 0 -54 35 -79 109 -79 100 0 171
59 171 141 l0 39 -87 0 c-50 -1 -106 -7 -128 -15z"/>
<path d="M4441 5298 c-44 -30 -69 -64 -77 -105 l-6 -33 165 0 165 0 -7 33
c-19 83 -61 120 -144 125 -52 3 -67 0 -96 -20z"/>
</g>
</svg>
